<svg width="16" height="15" viewBox="0 0 16 15" fill="none" xmlns="http://www.w3.org/2000/svg">
<path id="Vector" d="M8 0C5.88624 0.0240446 3.86627 0.821941 2.3715 2.22328C0.876737 3.62463 0.0256476 5.51835 0 7.5C0.0256476 9.48165 0.876737 11.3754 2.3715 12.7767C3.86627 14.1781 5.88624 14.976 8 15C10.1138 14.976 12.1337 14.1781 13.6285 12.7767C15.1233 11.3754 15.9744 9.48165 16 7.5C15.9744 5.51835 15.1233 3.62463 13.6285 2.22328C12.1337 0.821941 10.1138 0.0240446 8 0ZM12.5714 8.03571H8.57143V11.7857H7.42857V8.03571H3.42857V6.96429H7.42857V3.21429H8.57143V6.96429H12.5714V8.03571Z" fill="#4ECB71"/>
</svg>
