<svg width="50" height="50" viewBox="0 0 50 50" fill="none" xmlns="http://www.w3.org/2000/svg">
<g id="User Interface / Bell">
<path id="Vector" d="M37.5002 27.4584V20.8334C37.4972 17.8815 36.4496 15.026 34.5431 12.7725C32.6366 10.5189 29.994 9.01282 27.0835 8.52085V6.25002C27.0835 5.69749 26.864 5.16758 26.4733 4.77688C26.0826 4.38618 25.5527 4.16669 25.0002 4.16669C24.4476 4.16669 23.9177 4.38618 23.527 4.77688C23.1363 5.16758 22.9168 5.69749 22.9168 6.25002V8.52085C20.0063 9.01282 17.3638 10.5189 15.4572 12.7725C13.5507 15.026 12.5032 17.8815 12.5002 20.8334V27.4584C11.2844 27.8882 10.2314 28.6835 9.48545 29.7353C8.73949 30.7871 8.33712 32.0439 8.3335 33.3334V37.5C8.3335 38.0526 8.55299 38.5825 8.94369 38.9732C9.33439 39.3639 9.8643 39.5834 10.4168 39.5834H16.9585C17.4383 41.3487 18.4856 42.9071 19.9389 44.0182C21.3922 45.1293 23.1708 45.7313 25.0002 45.7313C26.8295 45.7313 28.6081 45.1293 30.0614 44.0182C31.5147 42.9071 32.5621 41.3487 33.0418 39.5834H39.5835C40.136 39.5834 40.6659 39.3639 41.0566 38.9732C41.4473 38.5825 41.6668 38.0526 41.6668 37.5V33.3334C41.6632 32.0439 41.2608 30.7871 40.5149 29.7353C39.7689 28.6835 38.7159 27.8882 37.5002 27.4584ZM16.6668 20.8334C16.6668 18.6232 17.5448 16.5036 19.1076 14.9408C20.6704 13.378 22.79 12.5 25.0002 12.5C27.2103 12.5 29.3299 13.378 30.8927 14.9408C32.4555 16.5036 33.3335 18.6232 33.3335 20.8334V27.0834H16.6668V20.8334ZM25.0002 41.6667C24.273 41.6623 23.5597 41.4677 22.9311 41.1022C22.3024 40.7367 21.7804 40.2131 21.4168 39.5834H28.5835C28.2199 40.2131 27.6979 40.7367 27.0693 41.1022C26.4406 41.4677 25.7273 41.6623 25.0002 41.6667ZM37.5002 35.4167H12.5002V33.3334C12.5002 32.7808 12.7197 32.2509 13.1104 31.8602C13.5011 31.4695 14.031 31.25 14.5835 31.25H35.4168C35.9694 31.25 36.4993 31.4695 36.89 31.8602C37.2807 32.2509 37.5002 32.7808 37.5002 33.3334V35.4167Z" fill="black"/>
</g>
</svg>
