<svg width="31" height="25" viewBox="0 0 31 25" fill="none" xmlns="http://www.w3.org/2000/svg">
<g id="mdi:settings">
<path id="Vector" d="M16.0895 15.1042C14.8905 15.1042 13.7406 14.7201 12.8928 14.0363C12.045 13.3526 11.5687 12.4253 11.5687 11.4584C11.5687 10.4914 12.045 9.56409 12.8928 8.88036C13.7406 8.19663 14.8905 7.81252 16.0895 7.81252C17.2885 7.81252 18.4384 8.19663 19.2862 8.88036C20.134 9.56409 20.6103 10.4914 20.6103 11.4584C20.6103 12.4253 20.134 13.3526 19.2862 14.0363C18.4384 14.7201 17.2885 15.1042 16.0895 15.1042ZM25.6866 12.4688C25.7383 12.1354 25.777 11.8021 25.777 11.4584C25.777 11.1146 25.7383 10.7709 25.6866 10.4167L28.412 8.71877C28.6574 8.56252 28.722 8.28127 28.567 8.0521L25.9837 4.44794C25.8287 4.21877 25.4799 4.12502 25.1958 4.21877L21.9795 5.26044C21.3078 4.85419 20.6103 4.50002 19.7966 4.23961L19.3187 1.47919C19.2924 1.3565 19.2132 1.24526 19.095 1.16518C18.9768 1.0851 18.8272 1.04135 18.6728 1.04169H13.5062C13.1833 1.04169 12.912 1.22919 12.8603 1.47919L12.3824 4.23961C11.5687 4.50002 10.8712 4.85419 10.1995 5.26044L6.98326 4.21877C6.6991 4.12502 6.35035 4.21877 6.19535 4.44794L3.61201 8.0521C3.4441 8.28127 3.5216 8.56252 3.76701 8.71877L6.49243 10.4167C6.44076 10.7709 6.40201 11.1146 6.40201 11.4584C6.40201 11.8021 6.44076 12.1354 6.49243 12.4688L3.76701 14.1979C3.5216 14.3542 3.4441 14.6354 3.61201 14.8646L6.19535 18.4688C6.35035 18.6979 6.6991 18.7813 6.98326 18.6979L10.1995 17.6459C10.8712 18.0625 11.5687 18.4167 12.3824 18.6771L12.8603 21.4375C12.912 21.6875 13.1833 21.875 13.5062 21.875H18.6728C18.9958 21.875 19.267 21.6875 19.3187 21.4375L19.7966 18.6771C20.6103 18.4063 21.3078 18.0625 21.9795 17.6459L25.1958 18.6979C25.4799 18.7813 25.8287 18.6979 25.9837 18.4688L28.567 14.8646C28.722 14.6354 28.6574 14.3542 28.412 14.1979L25.6866 12.4688Z" fill="#575757"/>
</g>
</svg>
