<svg width="39" height="40" viewBox="0 0 39 40" fill="none" xmlns="http://www.w3.org/2000/svg">
<g id="User Interface / Research">
<path id="Vector" d="M34.2387 28.05L30.875 24.5167C30.1514 23.8113 29.2388 23.3439 28.2542 23.1746C27.2697 23.0053 26.2583 23.1419 25.35 23.5667L23.8875 22.0667C25.6109 19.7049 26.3979 16.7612 26.0902 13.8281C25.7825 10.895 24.4029 8.1904 22.2291 6.25869C20.0552 4.32698 17.2486 3.31162 14.3742 3.417C11.4998 3.52238 8.771 4.74067 6.73718 6.82664C4.70337 8.9126 3.51553 11.7113 3.41278 14.6595C3.31004 17.6076 4.30002 20.4862 6.18343 22.7157C8.06685 24.9453 10.7039 26.3603 13.5636 26.6759C16.4233 26.9915 19.2935 26.1843 21.5962 24.4167L23.0425 25.9C22.5795 26.8327 22.4136 27.891 22.5681 28.9255C22.7226 29.9601 23.1898 30.9189 23.9037 31.6667L27.3487 35.2C28.2628 36.1364 29.5019 36.6623 30.7937 36.6623C32.0856 36.6623 33.3247 36.1364 34.2387 35.2C34.7031 34.7344 35.072 34.1783 35.3239 33.5643C35.5758 32.9504 35.7055 32.2911 35.7055 31.625C35.7055 30.959 35.5758 30.2996 35.3239 29.6857C35.072 29.0718 34.7031 28.5157 34.2387 28.05ZM20.4587 20.9834C19.3216 22.1467 17.8738 22.9383 16.2983 23.2581C14.7228 23.5779 13.0902 23.4117 11.6067 22.7803C10.1233 22.149 8.85552 21.0809 7.96364 19.7109C7.07176 18.341 6.59576 16.7306 6.59576 15.0834C6.59576 13.4361 7.07176 11.8257 7.96364 10.4558C8.85552 9.08584 10.1233 8.01773 11.6067 7.38638C13.0902 6.75503 14.7228 6.58877 16.2983 6.90861C17.8738 7.22845 19.3216 8.02003 20.4587 9.18336C21.2154 9.95745 21.8157 10.877 22.2253 11.8895C22.6349 12.9019 22.8458 13.9872 22.8458 15.0834C22.8458 16.1795 22.6349 17.2648 22.2253 18.2773C21.8157 19.2897 21.2154 20.2093 20.4587 20.9834ZM31.9475 32.7667C31.7964 32.9229 31.6167 33.0469 31.4187 33.1315C31.2206 33.2161 31.0083 33.2597 30.7937 33.2597C30.5792 33.2597 30.3668 33.2161 30.1688 33.1315C29.9708 33.0469 29.791 32.9229 29.64 32.7667L26.195 29.2334C26.0427 29.0784 25.9218 28.8941 25.8393 28.691C25.7568 28.4879 25.7143 28.27 25.7143 28.05C25.7143 27.83 25.7568 27.6122 25.8393 27.4091C25.9218 27.206 26.0427 27.0216 26.195 26.8667C26.3461 26.7105 26.5258 26.5865 26.7238 26.5019C26.9218 26.4173 27.1342 26.3737 27.3487 26.3737C27.5633 26.3737 27.7757 26.4173 27.9737 26.5019C28.1717 26.5865 28.3514 26.7105 28.5025 26.8667L31.9475 30.4C32.0998 30.555 32.2207 30.7393 32.3032 30.9424C32.3857 31.1455 32.4282 31.3633 32.4282 31.5834C32.4282 31.8034 32.3857 32.0212 32.3032 32.2243C32.2207 32.4274 32.0998 32.6118 31.9475 32.7667Z" fill="#686868"/>
</g>
</svg>
