<svg width="56" height="56" viewBox="0 0 56 56" fill="none" xmlns="http://www.w3.org/2000/svg">
<path id="Vector" d="M8.68802 1.79098e-06C8.33747 0.000240405 7.98668 0.0211192 7.63684 0.0638311C2.04005 0.746746 -1.19421 6.72237 0.411728 13.4104C0.793151 14.9957 1.41863 16.5119 2.26569 17.9044C2.26498 17.8937 2.26486 17.8833 2.26415 17.8727C2.42928 18.1483 2.62284 18.4057 2.84165 18.6408C4.18146 20.08 6.14735 20.3045 7.22306 19.1982C8.29877 18.0919 8.07562 16.0385 6.73605 14.5993C6.56816 15.5018 5.80764 16.202 4.85827 16.202C3.78685 16.202 2.91143 15.3244 2.91143 14.2508C2.91143 14.0259 2.94239 13.8511 3.00954 13.6638C4.15812 11.0755 6.51529 9.07749 9.50593 8.51902C13.0815 7.85137 16.5536 9.42861 18.4816 12.2552C19.0313 13.8303 19.2053 15.21 19.1504 16.4923C19.0503 18.8322 18.1537 20.9428 17.1092 23.3219C15.6584 26.6258 14.0114 30.4582 14.427 35.7555C14.58 42.6546 18.1735 49.3213 24.5347 53.1019C34.3416 58.9304 47.0074 55.6908 52.8255 45.8671C58.6434 36.0435 55.4109 23.3553 45.604 17.5268C44.0813 16.6206 42.4488 15.9142 40.7464 15.425C46.1097 19.5527 47.937 26.8926 45.114 33.0676C45.0497 32.549 44.9527 32.0351 44.8235 31.5288C43.166 25.026 36.611 21.0215 30.1208 22.6813C29.0632 22.9513 28.1088 23.4591 27.2017 23.9706C31.4717 23.3662 35.5535 25.9479 36.6454 30.2307C37.8159 34.8248 35.081 39.4427 30.4944 40.6152C29.3443 40.9093 28.1461 40.9632 26.9743 40.7734C26.0805 40.4551 25.2197 40.0507 24.404 39.5656C22.651 38.5238 21.1979 37.1703 20.0682 35.6194C18.0686 31.7885 17.6424 28.1088 19.0898 24.3594L19.0856 24.3578L19.1461 24.2201C20.1936 21.8344 21.2518 19.4323 21.3736 16.588C21.4208 15.4846 21.32 14.3283 21.0336 13.1009C20.9705 12.3922 20.8538 11.6692 20.6779 10.9371C19.1724 4.66694 13.9469 -0.00333881 8.68802 1.79098e-06ZM42.313 6.86375C38.9161 6.82163 35.8283 9.1795 34.3168 14.225C37.98 10.2537 49.6731 13.4653 56 25.741C54.4927 13.6702 47.9739 6.93366 42.3127 6.86363L42.313 6.86375Z" fill="#C94445"/>
</svg>
