<svg width="7" height="31" viewBox="0 0 7 31" fill="none" xmlns="http://www.w3.org/2000/svg">
<path d="M3.5 7.375C4.14279 7.375 4.77114 7.18439 5.3056 6.82728C5.84006 6.47016 6.25663 5.96258 6.50261 5.36872C6.7486 4.77486 6.81296 4.1214 6.68755 3.49096C6.56215 2.86052 6.25262 2.28142 5.7981 1.8269C5.34358 1.37238 4.76448 1.06285 4.13405 0.937449C3.50361 0.812047 2.85014 0.876408 2.25628 1.12239C1.66242 1.36838 1.15484 1.78494 0.797726 2.3194C0.440611 2.85386 0.250002 3.48221 0.250002 4.125C0.250002 4.98695 0.592412 5.81361 1.20191 6.4231C1.8114 7.03259 2.63805 7.375 3.5 7.375ZM3.5 23.625C2.85721 23.625 2.22886 23.8156 1.6944 24.1727C1.15994 24.5298 0.743378 25.0374 0.497393 25.6313C0.251408 26.2251 0.187047 26.8786 0.312449 27.509C0.437851 28.1395 0.747385 28.7186 1.20191 29.1731C1.65643 29.6276 2.23552 29.9371 2.86596 30.0625C3.4964 30.188 4.14986 30.1236 4.74372 29.8776C5.33758 29.6316 5.84516 29.2151 6.20228 28.6806C6.55939 28.1461 6.75 27.5178 6.75 26.875C6.75 26.013 6.40759 25.1864 5.7981 24.5769C5.18861 23.9674 4.36196 23.625 3.5 23.625ZM3.5 12.25C2.85721 12.25 2.22886 12.4406 1.6944 12.7977C1.15994 13.1548 0.743378 13.6624 0.497393 14.2563C0.251408 14.8501 0.187047 15.5036 0.312449 16.134C0.437851 16.7645 0.747385 17.3436 1.20191 17.7981C1.65643 18.2526 2.23552 18.5622 2.86596 18.6876C3.4964 18.813 4.14986 18.7486 4.74372 18.5026C5.33758 18.2566 5.84516 17.8401 6.20228 17.3056C6.55939 16.7711 6.75 16.1428 6.75 15.5C6.75 14.638 6.40759 13.8114 5.7981 13.2019C5.18861 12.5924 4.36196 12.25 3.5 12.25Z" fill="#2c3a74"/>
</svg>
