<svg width="14" height="20" viewBox="0 0 14 20" fill="none" xmlns="http://www.w3.org/2000/svg">
<path d="M12 0H8V4.059C9.43132 4.21633 10.8035 4.71684 12 5.518V0ZM6 0H2V5.518C3.19648 4.71684 4.56868 4.21633 6 4.059V0ZM7 20C8.85652 20 10.637 19.2625 11.9497 17.9497C13.2625 16.637 14 14.8565 14 13C14 11.1435 13.2625 9.36301 11.9497 8.05025C10.637 6.7375 8.85652 6 7 6C5.14348 6 3.36301 6.7375 2.05025 8.05025C0.737498 9.36301 0 11.1435 0 13C0 14.8565 0.737498 16.637 2.05025 17.9497C3.36301 19.2625 5.14348 20 7 20ZM5.775 11.481L7 9L8.225 11.481L10.963 11.878L8.982 13.81L9.45 16.537L7 15.25L4.551 16.537L5.019 13.81L3.038 11.878L5.775 11.481Z" fill="black"/>
</svg>
