<svg width="20" height="20" viewBox="0 0 20 20" fill="none" xmlns="http://www.w3.org/2000/svg">
<path d="M1.12522e-05 9.99771C0.000512806 7.80531 0.721493 5.67383 2.05199 3.93131C3.38249 2.18878 5.24877 0.931794 7.3636 0.353791C9.47844 -0.224213 11.7246 -0.0911964 13.7565 0.732369C15.7883 1.55593 17.4932 3.0244 18.6087 4.91178C19.7242 6.79915 20.1886 9.00083 19.9304 11.178C19.6721 13.3551 18.7055 15.387 17.1794 16.961C15.6532 18.5351 13.6521 19.5639 11.484 19.8893C9.31588 20.2146 7.10092 19.8184 5.18001 18.7617L1.29201 19.9457C1.11859 19.9985 0.934075 20.0032 0.758197 19.9593C0.582318 19.9153 0.421694 19.8244 0.293506 19.6962C0.165318 19.568 0.0743871 19.4074 0.0304406 19.2315C-0.0135059 19.0556 -0.00881521 18.8711 0.0440111 18.6977L1.22801 14.8037C0.41992 13.3309 -0.00251363 11.6776 1.12522e-05 9.99771ZM6 8.99771C6 9.26292 6.10536 9.51728 6.2929 9.70481C6.48043 9.89235 6.73479 9.99771 7 9.99771H13C13.2652 9.99771 13.5196 9.89235 13.7071 9.70481C13.8946 9.51728 14 9.26292 14 8.99771C14 8.73249 13.8946 8.47814 13.7071 8.2906C13.5196 8.10307 13.2652 7.99771 13 7.99771H7C6.73479 7.99771 6.48043 8.10307 6.2929 8.2906C6.10536 8.47814 6 8.73249 6 8.99771ZM7 11.9977C6.73479 11.9977 6.48043 12.1031 6.2929 12.2906C6.10536 12.4781 6 12.7325 6 12.9977C6 13.2629 6.10536 13.5173 6.2929 13.7048C6.48043 13.8923 6.73479 13.9977 7 13.9977H11C11.2652 13.9977 11.5196 13.8923 11.7071 13.7048C11.8946 13.5173 12 13.2629 12 12.9977C12 12.7325 11.8946 12.4781 11.7071 12.2906C11.5196 12.1031 11.2652 11.9977 11 11.9977H7Z" fill="black"/>
</svg>
