<svg width="17" height="20" viewBox="0 0 17 20" fill="none" xmlns="http://www.w3.org/2000/svg">
<path d="M8.48476 0C11.5535 0 14.0227 2.41479 14.0227 5.39601V6.92935C15.7451 7.46696 17 9.02614 17 10.8884V15.8253C17 18.1308 15.0886 20 12.7322 20H4.2688C1.91136 20 0 18.1308 0 15.8253V10.8884C0 9.02614 1.25595 7.46696 2.97729 6.92935V5.39601C2.98745 2.41479 5.45667 0 8.48476 0ZM8.49492 11.3843C8.00717 11.3843 7.61088 11.7718 7.61088 12.2488V14.4549C7.61088 14.9419 8.00717 15.3294 8.49492 15.3294C8.99283 15.3294 9.38912 14.9419 9.38912 14.4549V12.2488C9.38912 11.7718 8.99283 11.3843 8.49492 11.3843ZM8.50508 1.73904C6.44232 1.73904 4.76569 3.36878 4.75553 5.37613V6.7137H12.2445V5.39601C12.2445 3.37871 10.5678 1.73904 8.50508 1.73904Z" fill="#2C3A74"/>
</svg>
