<svg width="50" height="50" viewBox="0 0 50 50" fill="none" xmlns="http://www.w3.org/2000/svg">
<path fill-rule="evenodd" clip-rule="evenodd" d="M25.0001 8.33342C22.085 8.33288 19.2208 9.09693 16.6933 10.5493C14.1657 12.0017 12.0634 14.0916 10.596 16.6104C9.12857 19.1292 8.34748 21.9889 8.33066 24.9039C8.31384 27.8189 9.06187 30.6874 10.5001 33.223C11.4722 31.9596 12.7218 30.9367 14.1524 30.2334C15.5829 29.53 17.156 29.1651 18.7501 29.1667H31.2501C32.8442 29.1651 34.4173 29.53 35.8478 30.2334C37.2784 30.9367 38.528 31.9596 39.5001 33.223C40.9383 30.6874 41.6864 27.8189 41.6695 24.9039C41.6527 21.9889 40.8716 19.1292 39.4042 16.6104C37.9368 14.0916 35.8345 12.0017 33.3069 10.5493C30.7794 9.09693 27.9152 8.33288 25.0001 8.33342ZM41.548 37.6584C44.3335 34.0271 45.8402 29.5767 45.8334 25.0001C45.8334 13.4938 36.5064 4.16675 25.0001 4.16675C13.4939 4.16675 4.16677 13.4938 4.16677 25.0001C4.15989 29.5767 5.66657 34.0272 8.45219 37.6584L8.44177 37.6959L9.18135 38.5563C11.1353 40.8407 13.5613 42.6743 16.2923 43.9306C19.0232 45.1869 21.9941 45.8361 25.0001 45.8334C29.2237 45.8412 33.3489 44.5582 36.823 42.1563C38.3041 41.133 39.6471 39.923 40.8189 38.5563L41.5584 37.6959L41.548 37.6584ZM25.0001 12.5001C23.3425 12.5001 21.7528 13.1586 20.5807 14.3307C19.4086 15.5028 18.7501 17.0925 18.7501 18.7501C18.7501 20.4077 19.4086 21.9974 20.5807 23.1695C21.7528 24.3416 23.3425 25.0001 25.0001 25.0001C26.6577 25.0001 28.2474 24.3416 29.4195 23.1695C30.5916 21.9974 31.2501 20.4077 31.2501 18.7501C31.2501 17.0925 30.5916 15.5028 29.4195 14.3307C28.2474 13.1586 26.6577 12.5001 25.0001 12.5001Z" fill="#444444"/>
</svg>
