<svg xmlns="http://www.w3.org/2000/svg" width="24" height="24" fill-rule="evenodd" stroke-linejoin="round" stroke-miterlimit="2" clip-rule="evenodd" id="robot"><path d="M119,289.739L119,292L118,292C114.829,292 112.151,294.108 111.29,297L110,297L110,301L111.29,301C112.151,303.892 114.829,306 118,306C119.308,306 120.692,306 122,306C125.171,306 127.849,303.892 128.71,301L130,301L130,297L128.71,297C127.849,294.108 125.171,292 122,292L121,292L121,289.745C121.603,289.399 122.009,288.749 122.009,288.005C122.009,286.898 121.111,286 120.005,286C118.898,286 118,286.898 118,288.005C118,288.745 118.402,289.392 119,289.739ZM113,299C113,299.552 113,299 113,299C113,296.239 115.239,294 118,294C119.308,294 120.692,294 122,294C124.761,294 127,296.239 127,299C127,299.004 127,299.009 127,299.013C127,301.761 124.761,304 122,304C120.692,304 119.308,304 118,304C115.239,304 113,301.761 113,299ZM122,298L122,300L124,300L124,298L122,298ZM116,298L116,300L118,300L118,298L116,298ZM120.005,288C120.005,288 120.005,288 120.005,288Z" transform="translate(-108 -284)"></path></svg>