<svg width="6" height="6" viewBox="0 0 6 6" fill="none" xmlns="http://www.w3.org/2000/svg">
<path d="M5.25 2.25H3.75V0.75C3.75 0.551088 3.67098 0.360322 3.53033 0.21967C3.38968 0.0790176 3.19891 0 3 0C2.80109 0 2.61032 0.0790176 2.46967 0.21967C2.32902 0.360322 2.25 0.551088 2.25 0.75L2.27663 2.25H0.75C0.551088 2.25 0.360322 2.32902 0.21967 2.46967C0.0790176 2.61032 0 2.80109 0 3C0 3.19891 0.0790176 3.38968 0.21967 3.53033C0.360322 3.67098 0.551088 3.75 0.75 3.75L2.27663 3.72337L2.25 5.25C2.25 5.44891 2.32902 5.63968 2.46967 5.78033C2.61032 5.92098 2.80109 6 3 6C3.19891 6 3.38968 5.92098 3.53033 5.78033C3.67098 5.63968 3.75 5.44891 3.75 5.25V3.72337L5.25 3.75C5.44891 3.75 5.63968 3.67098 5.78033 3.53033C5.92098 3.38968 6 3.19891 6 3C6 2.80109 5.92098 2.61032 5.78033 2.46967C5.63968 2.32902 5.44891 2.25 5.25 2.25Z" fill="white"/>
</svg>
