<svg width="16" height="16" viewBox="0 0 16 16" fill="none" xmlns="http://www.w3.org/2000/svg">
<circle cx="8" cy="8" r="8" fill="#7239D3"/>
<path d="M10.25 7.25H8.75V5.75C8.75 5.55109 8.67098 5.36032 8.53033 5.21967C8.38968 5.07902 8.19891 5 8 5C7.80109 5 7.61032 5.07902 7.46967 5.21967C7.32902 5.36032 7.25 5.55109 7.25 5.75L7.27663 7.25H5.75C5.55109 7.25 5.36032 7.32902 5.21967 7.46967C5.07902 7.61032 5 7.80109 5 8C5 8.19891 5.07902 8.38968 5.21967 8.53033C5.36032 8.67098 5.55109 8.75 5.75 8.75L7.27663 8.72337L7.25 10.25C7.25 10.4489 7.32902 10.6397 7.46967 10.7803C7.61032 10.921 7.80109 11 8 11C8.19891 11 8.38968 10.921 8.53033 10.7803C8.67098 10.6397 8.75 10.4489 8.75 10.25V8.72337L10.25 8.75C10.4489 8.75 10.6397 8.67098 10.7803 8.53033C10.921 8.38968 11 8.19891 11 8C11 7.80109 10.921 7.61032 10.7803 7.46967C10.6397 7.32902 10.4489 7.25 10.25 7.25Z" fill="white"/>
</svg>
