<svg width="12" height="8" viewBox="0 0 12 8" fill="none" xmlns="http://www.w3.org/2000/svg">
<path d="M0.999807 6.82981C1.18717 7.01606 1.44062 7.12061 1.70481 7.12061C1.96899 7.12061 2.22244 7.01606 2.40981 6.82981L5.99981 3.28981L9.53981 6.82981C9.72717 7.01606 9.98062 7.12061 10.2448 7.12061C10.509 7.12061 10.7624 7.01606 10.9498 6.82981C11.0435 6.73685 11.1179 6.62625 11.1687 6.50439C11.2195 6.38253 11.2456 6.25182 11.2456 6.11981C11.2456 5.9878 11.2195 5.8571 11.1687 5.73524C11.1179 5.61338 11.0435 5.50278 10.9498 5.40981L6.70981 1.16981C6.61684 1.07608 6.50624 1.00169 6.38438 0.950922C6.26253 0.900153 6.13182 0.874015 5.99981 0.874015C5.8678 0.874015 5.73709 0.900153 5.61523 0.950922C5.49337 1.00169 5.38277 1.07608 5.28981 1.16981L0.999807 5.40981C0.906079 5.50278 0.831685 5.61338 0.780916 5.73524C0.730147 5.8571 0.704008 5.9878 0.704008 6.11981C0.704008 6.25182 0.730147 6.38253 0.780916 6.50439C0.831685 6.62625 0.906079 6.73685 0.999807 6.82981Z" fill="#D7D7D7"/>
</svg>
