<svg width="18" height="18" viewBox="0 0 18 18" fill="none" xmlns="http://www.w3.org/2000/svg">
<path d="M11.5498 9.22C12.0834 8.75813 12.5114 8.18688 12.8047 7.54502C13.098 6.90316 13.2498 6.20571 13.2498 5.5C13.2498 4.17392 12.723 2.90215 11.7853 1.96447C10.8477 1.02678 9.57589 0.5 8.2498 0.5C6.92372 0.5 5.65195 1.02678 4.71427 1.96447C3.77659 2.90215 3.2498 4.17392 3.2498 5.5C3.25598 6.20958 3.41557 6.90944 3.71764 7.55154C4.01971 8.19365 4.4571 8.76282 4.9998 9.22C3.59994 9.85388 2.41227 10.8775 1.57878 12.1685C0.7453 13.4596 0.301277 14.9633 0.299805 16.5C0.299805 16.7652 0.405161 17.0196 0.592698 17.2071C0.780234 17.3946 1.03459 17.5 1.2998 17.5C1.56502 17.5 1.81938 17.3946 2.00691 17.2071C2.19445 17.0196 2.2998 16.7652 2.2998 16.5C2.2998 14.9087 2.93195 13.3826 4.05716 12.2574C5.18238 11.1321 6.70851 10.5 8.2998 10.5C9.8911 10.5 11.4172 11.1321 12.5424 12.2574C13.6677 13.3826 14.2998 14.9087 14.2998 16.5C14.2998 16.7652 14.4052 17.0196 14.5927 17.2071C14.7802 17.3946 15.0346 17.5 15.2998 17.5C15.565 17.5 15.8194 17.3946 16.0069 17.2071C16.1944 17.0196 16.2998 16.7652 16.2998 16.5C16.294 14.9578 15.8426 13.4502 14.9998 12.1586C14.1571 10.867 12.959 9.84651 11.5498 9.22ZM8.2498 8.5C7.65646 8.5 7.07644 8.32405 6.58309 7.99441C6.08975 7.66476 5.70523 7.19623 5.47817 6.64805C5.2511 6.09987 5.19169 5.49667 5.30745 4.91473C5.4232 4.33279 5.70893 3.79824 6.12848 3.37868C6.54804 2.95912 7.08259 2.6734 7.66453 2.55764C8.24648 2.44189 8.84968 2.5013 9.39785 2.72836C9.94603 2.95542 10.4146 3.33994 10.7442 3.83329C11.0739 4.32664 11.2498 4.90666 11.2498 5.5C11.2498 6.29565 10.9337 7.05871 10.3711 7.62132C9.80852 8.18393 9.04545 8.5 8.2498 8.5ZM16.7498 3.5C16.4846 3.5 16.2302 3.60536 16.0427 3.79289C15.8552 3.98043 15.7498 4.23478 15.7498 4.5V6.5C15.7498 6.76522 15.8552 7.01957 16.0427 7.20711C16.2302 7.39464 16.4846 7.5 16.7498 7.5C17.015 7.5 17.2694 7.39464 17.4569 7.20711C17.6444 7.01957 17.7498 6.76522 17.7498 6.5V4.5C17.7498 4.23478 17.6444 3.98043 17.4569 3.79289C17.2694 3.60536 17.015 3.5 16.7498 3.5ZM15.9998 8.79C15.8171 8.98163 15.7135 9.23523 15.7098 9.5C15.709 9.63161 15.7343 9.76207 15.784 9.88391C15.8338 10.0057 15.9071 10.1166 15.9998 10.21C16.097 10.2983 16.2086 10.3694 16.3298 10.42C16.4495 10.4729 16.5789 10.5002 16.7098 10.5002C16.8407 10.5002 16.9701 10.4729 17.0898 10.42C17.2139 10.3751 17.3266 10.3034 17.4199 10.2101C17.5132 10.1168 17.5849 10.0041 17.6298 9.88C17.6858 9.76132 17.7132 9.63118 17.7098 9.5C17.711 9.30138 17.6529 9.10691 17.5431 8.94139C17.4333 8.77587 17.2767 8.6468 17.0933 8.57063C16.9098 8.49446 16.7079 8.47465 16.5131 8.51372C16.3184 8.55279 16.1397 8.64897 15.9998 8.79Z" fill="#2E2E2E"/>
</svg>
