<svg width="24" height="24" viewBox="0 0 24 24" fill="none" xmlns="http://www.w3.org/2000/svg">
<path d="M19.0001 13.9999C18.8728 13.9668 18.7401 13.9592 18.6098 13.9776C18.4794 13.9959 18.354 14.0397 18.2407 14.1066C18.1273 14.1735 18.0283 14.2621 17.9493 14.3674C17.8702 14.4726 17.8128 14.5924 17.7801 14.7199C17.3977 16.2284 16.5236 17.5665 15.2957 18.5227C14.0679 19.4789 12.5564 19.9987 11.0001 19.9999H5.41014L6.05014 19.3699C6.23639 19.1825 6.34093 18.9291 6.34093 18.6649C6.34093 18.4007 6.23639 18.1473 6.05014 17.9599C5.17423 17.0875 4.54498 15.9987 4.22639 14.8042C3.9078 13.6097 3.91124 12.3521 4.23634 11.1594C4.56145 9.96666 5.19663 8.8813 6.0773 8.01369C6.95796 7.14608 8.05268 6.52717 9.25014 6.2199C9.37752 6.18707 9.49719 6.12948 9.60231 6.0504C9.70743 5.97132 9.79595 5.87231 9.86281 5.75902C9.92967 5.64573 9.97356 5.52039 9.99197 5.39014C10.0104 5.25989 10.003 5.12729 9.97014 4.9999C9.90384 4.74264 9.73805 4.52226 9.50926 4.38723C9.39597 4.32038 9.27062 4.27649 9.14037 4.25807C9.01012 4.23965 8.87752 4.24707 8.75014 4.2799C7.29714 4.65875 5.96202 5.39512 4.8664 6.42194C3.77078 7.44875 2.94949 8.73338 2.47733 10.1588C2.00518 11.5842 1.89717 13.1051 2.16314 14.5829C2.42912 16.0608 3.06063 17.4486 4.00014 18.6199L2.29014 20.2899C2.15138 20.4305 2.05739 20.6091 2.02001 20.8031C1.98264 20.9971 2.00356 21.1978 2.08014 21.3799C2.15516 21.5625 2.28256 21.7189 2.44628 21.8292C2.61 21.9395 2.80271 21.9989 3.00014 21.9999H11.0001C12.9964 22.0012 14.9364 21.3387 16.515 20.1168C18.0936 18.8949 19.2211 17.1828 19.7201 15.2499C19.7578 15.1205 19.7689 14.9849 19.7528 14.8511C19.7367 14.7174 19.6937 14.5882 19.6265 14.4715C19.5592 14.3548 19.4691 14.2528 19.3614 14.1718C19.2538 14.0907 19.1309 14.0323 19.0001 13.9999ZM20.5401 3.4599C19.7233 2.64099 18.6478 2.13061 17.4968 2.01571C16.3459 1.90081 15.1907 2.18849 14.2281 2.82976C13.2655 3.47103 12.5549 4.42621 12.2176 5.53258C11.8802 6.63894 11.9368 7.82806 12.3778 8.89735C12.8188 9.96664 13.6169 10.85 14.6362 11.3968C15.6554 11.9437 16.8327 12.1203 17.9675 11.8965C19.1023 11.6727 20.1244 11.0624 20.8597 10.1696C21.5951 9.27674 21.9981 8.15657 22.0001 6.9999C22.0013 6.34286 21.873 5.69202 21.6225 5.0846C21.3719 4.47718 21.0042 3.9251 20.5401 3.4599ZM14.0001 6.9999C14.0001 6.20426 14.3162 5.44119 14.8788 4.87858C15.4414 4.31598 16.2045 3.9999 17.0001 3.9999C17.4471 4.00255 17.8879 4.10505 18.2901 4.2999L14.2901 8.2999C14.0973 7.89378 13.9982 7.44949 14.0001 6.9999ZM19.1201 9.1199C18.6749 9.54316 18.1132 9.82359 17.5074 9.92516C16.9015 10.0267 16.2791 9.9448 15.7201 9.6899L19.7201 5.6899C19.911 6.09989 20.0067 6.54772 20.0001 6.9999C19.9994 7.79529 19.6829 8.55784 19.1201 9.1199Z" fill="#2E2E2E"/>
</svg>
