<svg width="57" height="61" viewBox="0 0 57 61" fill="none" xmlns="http://www.w3.org/2000/svg">
<path id="Vector" d="M24.2271 0.928193C22.4405 0.951203 20.3768 1.25825 18.0313 1.93586C13.8642 3.13996 10.3498 5.61226 7.59899 8.88272C5.51439 10.6234 3.24247 14.7453 1.54744 19.7413C-0.373342 26.6881 -0.352455 34.9168 1.36344 43.4673C1.81697 45.7282 2.92159 47.2595 4.50448 48.1391C6.08738 49.0183 8.21629 49.2346 10.7377 48.5065C12.3299 48.0468 13.4567 46.9297 14.137 45.6276C14.8172 44.3255 14.9834 42.8447 14.7544 41.9454C14.2355 39.908 12.4883 38.7744 10.9242 39.2259C9.85818 39.5339 9.33917 40.5257 9.33378 41.3705C9.33102 41.793 9.45152 42.135 9.66207 42.3743C9.87262 42.6136 10.1948 42.8136 10.8462 42.8239L10.8126 45.1804C9.6806 45.1626 8.69753 44.721 8.05163 43.987C7.40574 43.2529 7.11732 42.2897 7.1235 41.3536C7.13539 39.481 8.30247 37.5439 10.3444 36.9542C13.1843 36.1344 16.0865 38.1777 16.8891 41.3283C17.3206 43.023 16.9949 44.9987 16.0662 46.7766C15.1376 48.5544 13.5356 50.1421 11.3173 50.7825C10.8367 50.9208 10.3498 51.0327 9.85837 51.1178C21.5875 62.4476 39.3397 65.0045 51.183 52.2195C53.3246 49.9077 54.8686 47.072 55.7235 43.9937C55.7258 43.9858 55.7286 43.978 55.7308 43.9701C56.8913 38.8852 56.2797 33.3333 53.6144 28.447C48.363 18.8198 36.7548 15.0967 30.7453 18.6449C23.9801 21.5792 22.2874 25.844 21.7129 28.9959C19.177 36.6963 22.3142 46.0863 29.7781 48.6899C34.9553 50.4955 41.3026 47.981 42.9655 42.1879C44.0617 38.3687 42.4328 33.7421 38.7454 32.6763C37.6157 32.3499 36.3106 32.4844 35.2645 33.0219C34.2183 33.5593 33.446 34.4397 33.1694 35.688C33.018 36.3719 33.1088 37.1931 33.4012 37.8074C33.6934 38.4219 34.1127 38.8153 34.7352 38.9345C34.9581 38.977 35.245 38.9236 35.4777 38.8257C35.2863 38.7737 35.1097 38.6727 34.9631 38.5316C34.7982 38.3697 34.587 38.067 34.5282 37.7053C34.4341 37.0754 34.7864 36.4663 35.1187 36.2023C35.4512 35.9382 35.7693 35.8315 36.1638 35.8327C36.8983 35.8348 37.52 36.3292 37.8263 36.8522C38.1327 37.3751 38.2448 37.9385 38.1827 38.5257L38.1827 38.5299C38.0697 39.5747 37.4329 40.392 36.7071 40.8276C35.9911 41.2588 35.1559 41.4091 34.3465 41.2524C32.9932 40.9933 31.9752 40.0185 31.4302 38.8732C30.8853 37.7278 30.7391 36.3982 31.0162 35.1467C31.4566 33.1586 32.7593 31.6945 34.3041 30.9009C35.8489 30.1073 37.6514 29.922 39.3223 30.405C44.3744 31.8654 46.5006 37.9224 45.0779 42.8793C43.0133 50.0717 35.3511 53.1141 29.0895 50.9305C21.0161 48.1143 17.3236 38.7219 19.0589 30.3515C16.8151 28.2858 14.9893 25.3797 14.2484 22.4694C12.4841 15.5376 18.0694 8.03486 23.9206 5.97696C28.914 4.22503 33.3349 6.63016 31.047 10.8852C34.9923 7.31203 32.8349 0.817144 24.2271 0.928193Z" fill="#C94445"/>
</svg>
