<svg width="35" height="35" viewBox="0 0 41 40" fill="none" xmlns="http://www.w3.org/2000/svg">
<g id="User Interface / Login">
<path id="Vector" d="M33.8333 20C33.8333 19.558 33.6577 19.134 33.3451 18.8215C33.0326 18.5089 32.6087 18.3333 32.1666 18.3333H19.5166L23.35 14.5166C23.5054 14.3612 23.6286 14.1768 23.7127 13.9737C23.7968 13.7707 23.8401 13.5531 23.8401 13.3333C23.8401 13.1135 23.7968 12.8959 23.7127 12.6929C23.6286 12.4899 23.5054 12.3054 23.35 12.15C23.1946 11.9946 23.0101 11.8713 22.807 11.7872C22.604 11.7031 22.3864 11.6598 22.1666 11.6598C21.9469 11.6598 21.7292 11.7031 21.5262 11.7872C21.3232 11.8713 21.1387 11.9946 20.9833 12.15L14.3166 18.8166C14.1649 18.9752 14.0459 19.1621 13.9666 19.3666C13.7999 19.7724 13.7999 20.2275 13.9666 20.6333C14.0459 20.8379 14.1649 21.0248 14.3166 21.1833L20.9833 27.85C21.1382 28.0062 21.3226 28.1302 21.5257 28.2148C21.7288 28.2994 21.9466 28.343 22.1666 28.343C22.3866 28.343 22.6045 28.2994 22.8076 28.2148C23.0107 28.1302 23.195 28.0062 23.35 27.85C23.5062 27.695 23.6302 27.5107 23.7148 27.3076C23.7994 27.1045 23.843 26.8867 23.843 26.6666C23.843 26.4466 23.7994 26.2288 23.7148 26.0257C23.6302 25.8226 23.5062 25.6383 23.35 25.4833L19.5166 21.6666H32.1666C32.6087 21.6666 33.0326 21.4911 33.3451 21.1785C33.6577 20.8659 33.8333 20.442 33.8333 20ZM28.8333 3.33331H12.1666C10.8405 3.33331 9.56877 3.8601 8.63109 4.79778C7.69341 5.73546 7.16663 7.00723 7.16663 8.33331V31.6666C7.16663 32.9927 7.69341 34.2645 8.63109 35.2022C9.56877 36.1399 10.8405 36.6666 12.1666 36.6666H28.8333C30.1594 36.6666 31.4311 36.1399 32.3688 35.2022C33.3065 34.2645 33.8333 32.9927 33.8333 31.6666V26.6666C33.8333 26.2246 33.6577 25.8007 33.3451 25.4881C33.0326 25.1756 32.6087 25 32.1666 25C31.7246 25 31.3007 25.1756 30.9881 25.4881C30.6756 25.8007 30.5 26.2246 30.5 26.6666V31.6666C30.5 32.1087 30.3244 32.5326 30.0118 32.8452C29.6992 33.1577 29.2753 33.3333 28.8333 33.3333H12.1666C11.7246 33.3333 11.3007 33.1577 10.9881 32.8452C10.6756 32.5326 10.5 32.1087 10.5 31.6666V8.33331C10.5 7.89129 10.6756 7.46736 10.9881 7.1548C11.3007 6.84224 11.7246 6.66665 12.1666 6.66665H28.8333C29.2753 6.66665 29.6992 6.84224 30.0118 7.1548C30.3244 7.46736 30.5 7.89129 30.5 8.33331V13.3333C30.5 13.7753 30.6756 14.1993 30.9881 14.5118C31.3007 14.8244 31.7246 15 32.1666 15C32.6087 15 33.0326 14.8244 33.3451 14.5118C33.6577 14.1993 33.8333 13.7753 33.8333 13.3333V8.33331C33.8333 7.00723 33.3065 5.73546 32.3688 4.79778C31.4311 3.8601 30.1594 3.33331 28.8333 3.33331Z" fill="white"/>
</g>
</svg>
