
<svg width="16" height="15" viewBox="0 0 16 15" fill="none" xmlns="http://www.w3.org/2000/svg">
<g id="clarity:remove-solid" clip-path="url(#clip0_987_1528)">
<path id="Vector" d="M7.00003 1C5.59359 1 4.21872 1.39099 3.04931 2.12354C1.87989 2.85608 0.968443 3.89727 0.43022 5.11544C-0.108003 6.33362 -0.248827 7.67406 0.0255572 8.96727C0.299941 10.2605 0.977209 11.4484 1.97172 12.3807C2.96622 13.3131 4.2333 13.948 5.61272 14.2052C6.99214 14.4625 8.42195 14.3304 9.72133 13.8259C11.0207 13.3213 12.1313 12.4668 12.9127 11.3705C13.6941 10.2741 14.1111 8.98521 14.1111 7.66667C14.1111 5.89856 13.3619 4.20286 12.0283 2.95262C10.6948 1.70238 8.88601 1 7.00003 1ZM10.5556 10.2083C10.6735 10.3188 10.7397 10.4687 10.7397 10.625C10.7397 10.7813 10.6735 10.9312 10.5556 11.0417C10.4377 11.1522 10.2778 11.2143 10.1111 11.2143C9.94444 11.2143 9.78457 11.1522 9.6667 11.0417L7.00003 8.54167L4.33336 11.05C4.275 11.1047 4.20571 11.1481 4.12945 11.1777C4.05319 11.2073 3.97146 11.2226 3.88892 11.2226C3.80638 11.2226 3.72465 11.2073 3.64839 11.1777C3.57213 11.1481 3.50284 11.1047 3.44447 11.05C3.38611 10.9953 3.33981 10.9303 3.30822 10.8588C3.27664 10.7873 3.26038 10.7107 3.26038 10.6333C3.26038 10.556 3.27664 10.4793 3.30822 10.4078C3.33981 10.3363 3.38611 10.2714 3.44447 10.2167L6.11114 7.7L3.36892 5.10833C3.25104 4.99783 3.18482 4.84795 3.18482 4.69167C3.18482 4.53539 3.25104 4.38551 3.36892 4.275C3.48679 4.16449 3.64666 4.10241 3.81336 4.10241C3.98006 4.10241 4.13993 4.16449 4.25781 4.275L7.00003 6.875L9.74225 4.30417C9.80062 4.24945 9.86991 4.20605 9.94617 4.17643C10.0224 4.14682 10.1042 4.13158 10.1867 4.13158C10.2692 4.13158 10.351 4.14682 10.4272 4.17643C10.5035 4.20605 10.5728 4.24945 10.6311 4.30417C10.6895 4.35888 10.7358 4.42384 10.7674 4.49533C10.799 4.56683 10.8152 4.64345 10.8152 4.72083C10.8152 4.79822 10.799 4.87484 10.7674 4.94633C10.7358 5.01782 10.6895 5.08278 10.6311 5.1375L7.88892 7.7L10.5556 10.2083Z" fill="#F24E1E"/>
</g>
<defs>
<clipPath id="clip0_987_1528">
<rect width="16" height="15" fill="white"/>
</clipPath>
</defs>
</svg>
