<svg width="56" height="56" viewBox="0 0 56 56" fill="none" xmlns="http://www.w3.org/2000/svg">
<path id="Vector" d="M38.9896 0.000385559C32.8894 0.00883792 27.0638 4.16656 26.1164 10.5035C25.3152 15.8629 28.6999 21.5468 34.1436 22.3364C38.1251 22.914 42.3013 20.324 42.7963 16.2048C43.1443 13.3078 41.2687 10.2381 38.3412 9.91947C37.7196 9.85161 37.0902 9.93795 36.5154 10.1501C35.633 10.3781 34.9066 11.005 34.5279 11.8321C34.3393 12.191 34.2256 12.586 34.1941 12.9923C34.1475 13.596 34.3255 14.2179 34.66 14.7001C35.1838 15.6094 36.1495 16.2199 37.2553 16.2199C38.1798 16.2199 39.0066 15.7931 39.5589 15.1218C39.419 15.9299 38.9603 16.6159 38.3883 17.0658C37.7044 17.6036 36.859 17.8721 35.9909 17.8253C33.4124 17.6874 31.8134 15.1867 31.9966 12.8143C32.2591 9.41221 35.5065 7.34162 38.5743 7.67549C42.8464 8.14061 45.4722 12.4185 44.9842 16.4802C44.3227 21.9841 38.9361 25.3105 33.8342 24.5703C29.6517 23.9637 26.4814 21.0899 24.904 17.4389C21.8957 15.9342 18.5121 15.2563 15.1927 15.5591C6.56117 16.3464 -0.797242 24.1175 0.0695632 33.2825C0.73866 40.3569 6.72549 46.3595 13.7128 45.5686C18.9755 44.9734 23.4626 40.1539 22.7994 34.5654C22.3143 30.4777 18.7906 27.019 14.7771 27.5961C11.9542 28.0021 9.54296 30.6523 9.99972 33.6303C10.2587 35.3186 11.5646 36.78 13.1173 36.965C13.2946 36.9983 13.4771 37.0164 13.6638 37.0164C15.3268 37.0164 16.6746 35.6365 16.6746 33.9343C16.6746 32.6324 15.8858 31.5201 14.7707 31.0685C15.5044 31.0504 16.2001 31.3175 16.7297 31.7332C17.4139 32.2703 17.8858 33.0369 18.0665 33.9072C18.603 36.4924 16.6582 38.721 14.3724 39.1544C11.0942 39.776 8.30079 37.1 7.82221 33.9798C7.15595 29.6351 10.5118 25.931 14.4705 25.3617C19.8343 24.5901 24.3661 29.056 24.9875 34.2929C25.2022 36.1021 24.9899 37.8375 24.4461 39.428C24.7272 42.7242 25.8351 45.9303 27.6838 48.6249C32.6643 55.8839 42.9158 58.5208 50.2354 53.1684C55.8856 49.0369 57.9706 40.7262 53.8091 34.9265C50.6748 30.5582 44.356 28.9905 39.9601 32.3735C36.7446 34.8483 35.5797 39.7029 38.0741 42.9728C39.8285 45.2723 43.2751 46.0847 45.566 44.1903C47.0977 42.9237 47.6351 40.5232 46.3776 39.0153C46.1233 38.7104 45.7932 38.4725 45.4342 38.3168C45.2441 38.217 45.0442 38.1381 44.8379 38.0813C43.2316 37.6408 41.5806 38.6166 41.1503 40.2608C41.0603 40.6033 41.0288 40.9591 41.0572 41.3125C40.6405 40.6559 40.5074 39.8746 40.5974 39.1719C40.7097 38.2967 41.1221 37.4951 41.7681 36.8997C43.6868 35.1307 46.545 35.7405 48.0541 37.5505C50.2188 40.1461 49.3514 43.961 46.9511 45.9456C43.6088 48.7093 38.7974 47.5866 36.3369 44.3614C33.0032 39.9915 34.5155 33.7404 38.6351 30.5703C40.6808 28.996 43.0385 28.2782 45.3881 28.277C46.8164 28.2762 48.2414 28.5415 49.5918 29.0385C51.8795 26.4185 53.4563 23.1734 54.0446 19.7288C55.5374 10.9885 50.1113 1.70173 41.2407 0.188149C40.4967 0.0615361 39.7436 -0.00138999 38.9893 2.32839e-05L38.9896 0.000385559Z" fill="#C94445"/>
</svg>
