<svg width="56" height="56" viewBox="0 0 56 56" fill="none" xmlns="http://www.w3.org/2000/svg">
<path id="Vector" d="M41.6951 21.921C47.6142 19.4391 45.6864 9.72873 42.4477 5.27253C42.3717 5.17102 42.348 5.19412 42.3768 5.34184C43.2939 10.2224 42.5844 14.4233 40.2485 17.9446C38.4317 20.6801 35.8254 18.309 36.6428 14.5633C36.7322 14.1619 36.4947 13.7652 36.2171 13.8483C33.8822 14.5725 32.9353 16.6622 31.6151 19.3101C31.5503 19.4392 31.535 19.6099 31.5781 19.7622L32.0685 21.5382C32.1056 21.6673 32.1857 21.7598 32.2782 21.7734C32.9877 21.8886 33.7588 21.6717 34.3787 22.1055C35.5323 22.9112 36.1626 24.3198 36.2695 26.3311C36.2754 26.4742 36.3343 26.5941 36.4237 26.6493C36.9882 26.9953 37.676 27.0184 38.1417 27.4935C38.9272 28.2993 39.4958 29.3849 39.8474 30.7503C39.8844 30.8949 39.9256 30.898 39.9708 30.7598C40.9578 27.7982 40.9208 26.7188 39.8258 23.8772C39.7765 23.748 39.8012 23.6926 39.8999 23.711C43.4192 24.3383 45.1126 23.5958 48.4592 21.5521C49.3136 21.0262 50.1217 20.9386 51.0162 20.7955C51.118 20.7829 51.2044 20.6895 51.2475 20.5512C52.1996 17.482 53.7428 15.3661 55.8773 14.2036C56.0459 14.1114 56.0407 14.0483 55.8618 14.0143C52.9069 13.47 47.9934 14.9877 47.1298 20.122C47.1051 20.2651 47.0465 20.3851 46.9601 20.4634C45.7983 21.5059 44.5563 22.1979 43.2341 22.5393C42.6502 22.6899 42.1309 22.5485 41.6765 22.1148C41.5881 22.0287 41.5943 21.964 41.6951 21.921ZM14.305 21.921C8.38598 19.4391 10.3138 9.72873 13.5524 5.27253C13.6285 5.17102 13.6522 5.19412 13.6234 5.34184C12.7063 10.2224 13.4157 14.4233 15.7516 17.9446C17.5684 20.6801 20.1747 18.309 19.3573 14.5633C19.2679 14.1619 19.5054 13.7652 19.783 13.8483C22.1179 14.5725 23.0648 16.6622 24.385 19.3101C24.4498 19.4392 24.4652 19.6099 24.4219 19.7622L23.9315 21.5382C23.8944 21.6673 23.8143 21.7598 23.7218 21.7734C23.0123 21.8886 22.2412 21.6717 21.6213 22.1055C20.4677 22.9112 19.8374 24.3198 19.7305 26.3311C19.7244 26.4742 19.6657 26.5941 19.5763 26.6493C19.0118 26.9953 18.324 27.0184 17.8583 27.4935C17.0728 28.2993 16.5042 29.3849 16.1526 30.7503C16.1156 30.8949 16.0744 30.898 16.0292 30.7598C15.0422 27.7982 15.0792 26.7188 16.1742 23.8772C16.2235 23.748 16.1988 23.6926 16.1001 23.711C12.5808 24.3383 10.8874 23.5958 7.5408 21.5521C6.68641 21.0262 5.87828 20.9386 4.98379 20.7955C4.88201 20.7829 4.79563 20.6895 4.75246 20.5512C3.80039 17.482 2.25714 15.3661 0.122712 14.2036C-0.0459035 14.1114 -0.0407505 14.0483 0.138166 14.0143C3.09306 13.47 8.00658 14.9877 8.87022 20.122C8.8949 20.2651 8.9535 20.3851 9.03985 20.4634C10.2017 21.5059 11.4437 22.1979 12.7659 22.5393C13.3499 22.6899 13.8691 22.5485 14.3235 22.1148C14.4119 22.0287 14.4057 21.964 14.305 21.921ZM25.881 5.20756C25.7864 6.1302 25.7975 7.04707 25.9147 7.95739C26.2992 10.9158 26.6901 11.1053 27.087 14.0606C27.6854 18.503 26.695 22.7792 24.8104 26.2482C24.7528 26.3559 24.6821 26.4328 24.5978 26.479L23.9719 26.843C23.8731 26.8984 23.8113 27.051 23.8237 27.2079C23.9563 28.7163 24.2181 30.294 23.1447 31.2443C23.0491 31.332 23.0002 31.5026 23.0218 31.6641C24.4633 42.7477 26.0855 44.5436 27.8889 55.5041C27.9102 55.6323 27.9312 55.7089 27.9522 55.7871V55.9989C27.9695 56.0053 27.9868 55.9831 28.0046 55.9511C28.0224 55.9828 28.0397 56.0034 28.0571 55.9989V55.7871C28.0781 55.7089 28.0991 55.6323 28.1204 55.5041C29.9238 44.5436 31.546 42.7477 32.9875 31.6641C33.009 31.5027 32.9602 31.3319 32.8646 31.2443C31.7912 30.294 32.053 28.7163 32.1856 27.2079C32.1979 27.0509 32.1361 26.8983 32.0374 26.843L31.4115 26.479C31.3272 26.4328 31.2564 26.3562 31.1988 26.2482C29.3143 22.7792 28.3239 18.503 28.9223 14.0606C29.3191 11.1053 29.7101 10.9158 30.0946 7.95739C30.2118 7.04707 30.2229 6.1302 30.1283 5.20756C29.4228 -1.7357 26.5866 -1.73601 25.881 5.20756Z" fill="#C94445"/>
</svg>
