<svg width="56" height="56" viewBox="0 0 56 56" fill="none" xmlns="http://www.w3.org/2000/svg">
<path id="Vector" d="M34.0522 0.00124448C23.5838 0.0927382 12.2565 6.37343 5.4614 16.8378C5.34809 17.0128 5.26011 17.2057 5.15016 17.381C5.20477 17.3334 5.25339 17.271 5.30776 17.2239C0.476053 24.057 1.08462 33.5924 7.20585 39.7076C13.754 46.2491 24.22 46.5007 31.1037 40.5206C30.5424 41.3092 29.9134 42.0959 29.2057 42.8026C22.3638 49.6376 11.2571 49.6376 4.41519 42.8026C2.27691 40.6669 0.801824 38.1583 0 35.4504C0.351458 43.3174 4.19757 50.1686 11.272 53.6736C23.7066 59.8341 41.3044 53.3379 50.5079 39.1642C58.5611 26.762 57.5487 12.5545 48.8425 5.07501C47.5989 4.00658 46.177 3.09848 44.6226 2.32828C41.5141 0.788115 38.0863 0.0367388 34.5512 0.00112463C34.3855 -0.000434236 34.2184 -0.000314323 34.0523 0.00112463L34.0522 0.00124448ZM34.1794 7.48454C39.8378 7.40001 44.0978 10.2922 45.0276 14.5481V14.5517C45.1976 15.3302 45.2443 16.1784 45.1889 17.0738C44.7469 24.2376 36.9323 32.2614 27.7315 35.0083C27.618 35.0421 27.5067 35.0589 27.3939 35.0908L27.5065 35.0345C22.9641 36.5595 18.6137 34.9496 17.3711 31.0025C16.5273 28.3213 17.3149 25.1814 19.2016 22.5597C18.9982 23.423 19.1956 24.2277 19.8431 24.7631C21.1206 25.8202 23.6638 25.4316 25.5221 23.8937C27.3806 22.3559 27.85 20.2519 26.5724 19.1947C25.8169 18.5694 24.6174 18.45 23.3802 18.775C23.4016 18.7626 23.4226 18.7498 23.4441 18.7374C23.3535 18.7682 23.2616 18.8022 23.1704 18.8349C23.1291 18.8497 23.0876 18.8609 23.0464 18.8762C22.7161 18.9838 22.3949 19.1179 22.0862 19.2772C22.0074 19.314 21.9283 19.3503 21.8499 19.3895C16.7636 21.9365 11.86 27.5838 13.2488 31.9954C13.6829 33.374 14.4747 34.4673 15.5407 35.2443C11.9094 33.9924 9.73711 31.1042 9.95162 27.0267C10.3936 18.5324 19.9376 11.041 29.1382 8.29384C30.8995 7.76802 32.5954 7.50805 34.1796 7.48442L34.1794 7.48454Z" fill="#C94445"/>
</svg>
