<svg width="56" height="56" viewBox="0 0 56 56" fill="none" xmlns="http://www.w3.org/2000/svg">
<path id="Vector" d="M16.756 0.000961475C14.1248 0.0255574 11.9914 1.08674 10.2935 2.82676C8.29039 4.87926 6.95457 7.92559 6.54644 11.2554C5.73032 17.9153 8.51913 25.5083 16.3317 28.6775L15.4935 30.7346C7.84973 27.6339 4.37554 20.6638 4.19592 13.9809C2.12669 15.272 0.905174 17.195 0.340785 19.4986C-0.341965 22.2847 0.0157393 25.6226 1.28314 28.7481C3.81771 34.9992 9.7901 40.2566 17.784 39.1561L18.0895 41.3578C12.2734 42.1587 7.34017 39.9823 3.79721 36.4826C2.82553 38.4094 2.90277 40.3162 3.7189 42.2231C4.72872 44.5821 6.99653 46.887 10.0213 48.5911C15.6336 51.753 23.705 52.8157 30.6648 49.1964C30.0175 46.7024 30.3487 43.8407 32.0167 40.9606C34.7236 36.2871 39.2614 35.0398 42.5505 36.3637C44.1952 37.0257 45.54 38.3307 46.1115 40.0658C46.6832 41.8005 46.4495 43.904 45.2324 46.0439C43.8259 48.5165 41.1626 49.3562 39.1237 48.6841C38.1043 48.3478 37.1903 47.5627 36.8739 46.4412C36.5577 45.3195 36.857 44.0213 37.7158 42.7206L39.5745 43.9423C38.9501 44.8875 38.9189 45.4965 39.0155 45.8395C39.1124 46.1826 39.354 46.4211 39.82 46.5747C40.7524 46.8821 42.3807 46.5567 43.2955 44.9483C44.2715 43.2326 44.3468 41.8373 43.992 40.7599C43.6373 39.6827 42.8184 38.8642 41.7163 38.4207C39.512 37.5334 36.2166 38.1506 33.9462 42.0709C32.2746 44.957 32.233 47.4625 33.1452 49.6084L33.4806 50.1282C33.4571 50.1437 33.4333 50.1579 33.4098 50.1729C33.4403 50.2319 33.471 50.2927 33.5028 50.3511C33.7381 50.7806 34.0098 51.1893 34.315 51.5726C34.3269 51.588 34.34 51.6023 34.3522 51.6174C34.3993 51.6756 34.4487 51.7343 34.4976 51.7918C35.8693 53.4145 37.8777 54.6884 40.137 55.3901C43.0286 56.288 46.287 56.2392 49.0579 54.9445C51.8289 53.6497 54.1755 51.1455 55.3383 46.8201C55.7344 45.346 55.9438 43.995 55.9939 42.743C55.9951 42.6934 55.9966 42.6442 55.9974 42.5945C56.0078 41.9885 55.9869 41.3771 55.9303 40.7639C55.9259 40.7156 55.9203 40.6672 55.9154 40.619C55.9116 40.5869 55.9083 40.5543 55.9043 40.5224C55.5116 37.458 54.0183 35.0376 51.8106 32.8659C48.2782 29.3916 42.7877 26.7303 37.1794 24.0583C31.571 21.3864 25.8425 18.6995 21.8181 14.8312C18.0416 11.2009 15.8672 6.37296 17.013 0.000723738C16.9272 -0.000464469 16.8409 1.08137e-05 16.756 0.000723738V0.000961475Z" fill="#C94445"/>
</svg>
